<svg width="39" height="26" viewBox="0 0 39 26" fill="none" xmlns="http://www.w3.org/2000/svg">
<path d="M1.65443 0H36.3894C36.8382 0.0120552 37.264 0.201014 37.5739 0.525879C37.8837 0.850744 38.0525 1.28502 38.0433 1.73389V23.4067C38.0525 23.8556 37.8837 24.2899 37.5739 24.6147C37.264 24.9396 36.8382 25.1286 36.3894 25.1406H1.65443C1.20563 25.1286 0.779733 24.9396 0.469856 24.6147C0.159978 24.2899 -0.00876764 23.8556 0.000373359 23.4067V1.73486C-0.00903529 1.28583 0.159706 0.85145 0.469612 0.526367C0.779517 0.201285 1.20546 0.0120544 1.65443 0Z" fill="#F1F1F1"/>
<path d="M0.409309 24.5498C0.143693 24.229 -0.000972563 23.8252 0.000373611 23.4087V1.73486C-0.00903503 1.28583 0.159584 0.85145 0.46949 0.526367C0.779396 0.201285 1.20533 0.0120544 1.6543 0H36.3883C36.81 0.000946154 37.2144 0.16746 37.5143 0.463867L0.414314 24.5498H0.409309Z" fill="white" fill-opacity="0.73"/>
<path d="M14.6453 17.9625L15.9452 15.6124L15.2212 9.96833H16.9922L17.2782 13.3087L19.0112 9.96833H20.8392L16.6302 17.9625H14.6453ZM9.09216 13.7467C9.36516 12.3727 10.6922 11.9366 12.6542 11.9366C12.7712 11.3256 12.3822 11.1724 11.7202 11.1954C11.1365 11.2236 10.5627 11.3568 10.0262 11.5885L10.1812 10.2154C10.8253 10.0153 11.4925 9.89786 12.1663 9.86628C13.3923 9.84428 14.7552 10.2357 14.4442 11.8287L13.6852 15.5787H11.9142L12.0302 15.0103C11.8246 15.2225 11.5789 15.3918 11.3073 15.5079C11.0356 15.624 10.7436 15.6847 10.4482 15.6866C9.60924 15.6826 8.86226 15.1363 9.09326 13.7423L9.09216 13.7467ZM10.9032 13.6593C10.8475 13.7382 10.8158 13.8317 10.812 13.9283C10.8082 14.0249 10.8326 14.1206 10.882 14.2037C10.9314 14.2867 11.0037 14.3538 11.0903 14.3966C11.177 14.4393 11.2743 14.4557 11.3702 14.4444C11.5893 14.4542 11.8045 14.3845 11.9763 14.2481C12.1481 14.1118 12.2649 13.9183 12.3052 13.7027C12.3284 13.5342 12.3617 13.3672 12.4052 13.2027H11.9572C11.7576 13.1842 11.5567 13.2159 11.3726 13.295C11.1884 13.3741 11.0271 13.4978 10.9032 13.6553V13.6593ZM2.99219 15.5787L4.45618 8.40632H7.76318C8.05798 8.40371 8.34914 8.47193 8.61218 8.60505C8.87523 8.73817 9.10254 8.93237 9.27502 9.17146C9.44751 9.41055 9.56016 9.68747 9.60352 9.97908C9.64688 10.2707 9.61963 10.5683 9.52417 10.8472C9.42898 11.5031 9.10023 12.1025 8.59827 12.5352C8.0963 12.9679 7.45495 13.2052 6.79224 13.2027H5.40918L4.9342 15.5787H2.99219ZM5.68518 11.8287H6.59521C6.86141 11.8075 7.11346 11.7 7.31348 11.523C7.51349 11.3461 7.65066 11.1089 7.70422 10.8472C7.7462 10.7396 7.7616 10.6237 7.74915 10.5089C7.73669 10.394 7.69676 10.2837 7.63269 10.1876C7.56862 10.0914 7.48232 10.0123 7.3811 9.95662C7.27989 9.90089 7.16666 9.86997 7.05115 9.86726H6.1012L5.68518 11.8287Z" fill="#3284AE"/>
<path d="M26.3109 13.7456C26.5869 12.3716 27.9279 11.937 29.9169 11.937C30.0549 11.325 29.661 11.1738 28.991 11.1958C28.3948 11.2265 27.8083 11.3591 27.257 11.5879L27.4149 10.2148C28.0747 10.0172 28.756 9.9002 29.444 9.8667C30.685 9.8447 32.0439 10.2356 31.7289 11.8276L30.9609 15.5767H29.1879L29.3059 15.0107C28.8763 15.4399 28.2951 15.683 27.6879 15.687C26.8299 15.686 26.0739 15.1406 26.3109 13.7456ZM28.1439 13.6587C28.09 13.7403 28.0607 13.8358 28.0596 13.9336C28.0584 14.0314 28.0856 14.1272 28.1376 14.21C28.1896 14.2928 28.2642 14.3589 28.3528 14.4004C28.4413 14.4418 28.5401 14.457 28.637 14.4438C28.8548 14.4536 29.0686 14.3837 29.2389 14.2476C29.4092 14.1115 29.5243 13.9182 29.5629 13.7036C29.6019 13.5286 29.622 13.3756 29.663 13.2036H29.2299C29.0249 13.1829 28.8181 13.2137 28.6279 13.293C28.4378 13.3722 28.2704 13.4975 28.1409 13.6577L28.1439 13.6587ZM31.7799 15.5767L33.246 8.38281H35.0659L33.5809 15.5767H31.7799ZM20.2109 15.5767L21.673 8.40576H24.9729C25.2669 8.40497 25.5568 8.47425 25.8186 8.60791C26.0804 8.74157 26.3066 8.93577 26.4784 9.17432C26.6502 9.41287 26.7625 9.6888 26.8063 9.97949C26.85 10.2702 26.8238 10.5672 26.7299 10.8457C26.6346 11.5039 26.3039 12.1051 25.7992 12.5381C25.2945 12.9711 24.6499 13.2066 23.9849 13.2007H22.6219L22.1279 15.5757L20.2109 15.5767ZM22.8979 11.8276H23.7859C24.0542 11.807 24.3088 11.7006 24.5118 11.5239C24.7148 11.3472 24.8555 11.1096 24.913 10.8467C24.9528 10.7376 24.9659 10.6206 24.9514 10.5054C24.9369 10.3901 24.8951 10.2799 24.8295 10.1841C24.7639 10.0882 24.6763 10.0098 24.5741 9.95459C24.4719 9.89938 24.3581 9.86905 24.2419 9.8667H23.2939L22.8979 11.8276Z" fill="#3CA9C7"/>
</svg>
