<svg width="38" height="26" viewBox="0 0 38 26" fill="none" xmlns="http://www.w3.org/2000/svg">
<path d="M1.65278 0H36.3472C36.5686 0.00429082 36.787 0.052605 36.9899 0.14209C37.1928 0.231575 37.3762 0.360445 37.5297 0.521484C37.6831 0.682523 37.8036 0.87252 37.8842 1.08057C37.9649 1.28861 38.0041 1.51055 37.9997 1.73389V23.4082C38.0041 23.6315 37.9649 23.8535 37.8842 24.0615C37.8036 24.2696 37.6831 24.4596 37.5297 24.6206C37.3762 24.7816 37.1928 24.9105 36.9899 25C36.787 25.0895 36.5686 25.1378 36.3472 25.1421H1.65278C1.43139 25.1378 1.21302 25.0895 1.01013 25C0.807234 24.9105 0.623791 24.7816 0.470326 24.6206C0.316861 24.4596 0.196305 24.2696 0.115661 24.0615C0.0350173 23.8535 -0.00412576 23.6315 0.000343829 23.4082V1.73389C-0.00412576 1.51055 0.0350173 1.28861 0.115661 1.08057C0.196305 0.87252 0.316861 0.682523 0.470326 0.521484C0.623791 0.360445 0.807234 0.231575 1.01013 0.14209C1.21302 0.052605 1.43139 0.00429082 1.65278 0Z" fill="url(#paint0_linear_7601_8952)"/>
<path d="M29.7151 17.228L29.4654 15.9331H26.7552L26.3102 17.228H24.0877L27.2667 9.16309C27.3406 8.96309 27.4761 8.79207 27.6532 8.67529C27.8303 8.55852 28.0398 8.5022 28.2511 8.51416H29.965L31.6719 17.229L29.7151 17.228ZM28.4899 10.8838L27.3698 14.145H29.1204L28.4899 10.8838ZM21.2666 10.998C21.2666 11.95 24.2404 12.1538 24.2404 14.3428C24.2404 16.4508 22.0447 17.2261 20.5905 17.2261C19.764 17.2399 18.9439 17.0776 18.1837 16.75L18.5009 14.8599C19.3732 15.5799 22.019 15.7851 22.019 14.6421C22.019 13.4991 19.07 13.4719 19.07 11.2959C19.07 8.9839 21.5818 8.50781 22.6385 8.50781C23.293 8.52474 23.9404 8.64887 24.5556 8.875L24.2513 10.6841C23.3413 10.1721 21.2646 10.05 21.2646 11.002L21.2666 10.998ZM14.7401 17.228L16.0723 8.5127H18.2046L16.8723 17.228H14.7401ZM9.62811 17.228L7.77831 9.66602C8.10509 9.87191 8.41685 10.1012 8.71114 10.3521C9.60032 11.1196 10.2769 12.1065 10.6748 13.2168L10.9157 14.5078L12.9488 8.51416H15.2436L11.8514 17.229L9.62811 17.228ZM7.6515 9.58203C7.58542 9.5407 7.51926 9.50089 7.45317 9.46289C7.51662 9.50689 7.58204 9.54491 7.64944 9.58691L7.6515 9.58203ZM7.14195 9.29199C7.08446 9.26199 7.02505 9.23015 6.96855 9.20215C7.02307 9.23515 7.08153 9.26688 7.14001 9.29688L7.14195 9.29199Z" fill="#494CA3"/>
<defs>
<linearGradient id="paint0_linear_7601_8952" x1="19" y1="25.1421" x2="19" y2="0" gradientUnits="userSpaceOnUse">
<stop stop-color="#E59703"/>
<stop offset="0.231" stop-color="#E59703"/>
<stop offset="0.234" stop-color="white"/>
<stop offset="0.761" stop-color="white"/>
<stop offset="0.766" stop-color="#5457BB"/>
<stop offset="1" stop-color="#5457BB"/>
</linearGradient>
</defs>
</svg>
