<svg width="38" height="26" viewBox="0 0 38 26" fill="none" xmlns="http://www.w3.org/2000/svg">
<path d="M1.65268 0H36.3474C36.5689 0.00442054 36.7872 0.0530355 36.9901 0.142578C37.193 0.232121 37.3764 0.360947 37.5298 0.521973C37.6832 0.682999 37.8038 0.873073 37.8844 1.08105C37.965 1.28904 38.0041 1.51112 37.9997 1.73438V23.4102C38.0084 23.8609 37.8393 24.2966 37.5294 24.6216C37.2196 24.9466 36.7945 25.1341 36.3474 25.1431H1.65268C1.20566 25.1341 0.780431 24.9466 0.470571 24.6216C0.160711 24.2966 -0.00842318 23.8609 0.000343669 23.4102V1.73438C-0.00412914 1.51112 0.0350972 1.28904 0.115721 1.08105C0.196345 0.873073 0.316767 0.682999 0.470208 0.521973C0.623648 0.360947 0.807043 0.232121 1.00993 0.142578C1.21281 0.0530355 1.43125 0.00442054 1.65268 0Z" fill="#353A40"/>
<path d="M22.501 16.5658C22.2388 16.4314 22.0231 16.2197 21.8822 15.9594C21.7132 15.6407 21.631 15.2829 21.6442 14.9218C21.6296 14.6756 21.6636 14.4289 21.7443 14.1962C21.825 13.9634 21.9508 13.7492 22.1143 13.5658C22.2881 13.3989 22.494 13.2697 22.7194 13.1864C22.9448 13.1031 23.1847 13.0672 23.4244 13.0814C23.6658 13.0658 23.9079 13.1 24.1358 13.182C24.3636 13.264 24.5725 13.3922 24.7495 13.5585C24.9114 13.7385 25.0359 13.9493 25.1158 14.1786C25.1957 14.4079 25.2293 14.6509 25.2146 14.8934C25.2293 15.2451 25.1613 15.5953 25.0162 15.9154C24.8851 16.176 24.681 16.392 24.4291 16.5365C24.1342 16.6938 23.8034 16.7705 23.47 16.7587C23.1366 16.7708 22.8048 16.7048 22.501 16.5658ZM22.9037 14.1488C22.7758 14.3871 22.7089 14.6537 22.7089 14.9247C22.7089 15.1957 22.7758 15.4622 22.9037 15.7006C22.9711 15.7744 23.0531 15.8331 23.1442 15.8734C23.2354 15.9137 23.3338 15.9349 23.4333 15.9349C23.5329 15.9349 23.6313 15.9137 23.7224 15.8734C23.8136 15.8331 23.8954 15.7744 23.9629 15.7006C24.1132 15.4533 24.1794 15.1631 24.1514 14.8744C24.1727 14.6138 24.1026 14.3541 23.9531 14.1405C23.8875 14.064 23.8055 14.0038 23.7135 13.9638C23.6214 13.9237 23.5216 13.9051 23.4215 13.9096C23.3228 13.9068 23.2248 13.9267 23.135 13.9681C23.0453 14.0096 22.966 14.0717 22.9037 14.1488ZM13.0731 16.7225C12.9002 16.7054 12.732 16.6559 12.5772 16.5765C12.4368 16.4993 12.3128 16.3949 12.2123 16.2694C12.1093 16.1504 12.032 16.0114 11.9852 15.8607C11.9243 15.6664 11.8909 15.4643 11.886 15.2606V13.1425H12.9481V15.3104C12.9434 15.3929 12.9548 15.4757 12.9819 15.5536C13.009 15.6315 13.0512 15.7031 13.1059 15.7645C13.2262 15.8688 13.3795 15.9262 13.5382 15.9262C13.6969 15.9262 13.8503 15.8688 13.9707 15.7645C14.0253 15.7025 14.0674 15.6301 14.0943 15.5516C14.1212 15.4732 14.1323 15.3903 14.1273 15.3075V13.1395H15.1896V15.2577C15.1901 15.4619 15.1566 15.6648 15.0904 15.8578C15.0293 16.0414 14.9275 16.2084 14.7928 16.3466C14.6741 16.4772 14.5282 16.5794 14.3655 16.6464C14.1262 16.7304 13.8738 16.7705 13.6205 16.7645C13.4377 16.7609 13.2553 16.7465 13.0742 16.7216L13.0731 16.7225ZM28.0878 16.6986L26.7984 14.7465V16.6986H25.7967V13.1434H26.7885L28.0868 15.1097V13.1434H29.0905V16.6986H28.0878ZM18.1917 16.6986L16.9024 14.7465V16.6986H15.9007V13.1434H16.8925L18.1898 15.1097V13.1434H19.1934V16.6986H18.1917ZM19.9472 16.6893V13.1405H21.0183V16.6893H19.9472ZM11.8096 11.7084C11.58 11.4685 11.4436 11.1536 11.4257 10.8207L12.4394 10.7557C12.45 10.8944 12.4957 11.0277 12.5722 11.1434C12.6275 11.2151 12.6991 11.2722 12.7809 11.3099C12.8628 11.3477 12.9524 11.3654 13.0423 11.3607C13.1693 11.3692 13.295 11.3293 13.3945 11.2494C13.4318 11.2197 13.4619 11.182 13.4829 11.139C13.5038 11.096 13.515 11.0488 13.5156 11.0009C13.5161 10.953 13.5061 10.9057 13.4862 10.8622C13.4662 10.8187 13.437 10.78 13.4004 10.7494C13.2356 10.6417 13.0494 10.5713 12.8549 10.5433C12.4925 10.4822 12.15 10.3343 11.8562 10.1117C11.7594 10.0267 11.6824 9.92076 11.6309 9.80213C11.5795 9.6835 11.5548 9.55509 11.5586 9.42567C11.5591 9.24196 11.6125 9.06225 11.7124 8.90858C11.8254 8.73716 11.9867 8.60395 12.1756 8.52577C12.4458 8.42141 12.7344 8.37394 13.0236 8.38661C13.3775 8.36279 13.73 8.45154 14.0312 8.64051C14.1527 8.73745 14.2523 8.85962 14.3235 8.99842C14.3946 9.13723 14.4357 9.28966 14.4438 9.44569L13.44 9.50672C13.4269 9.37384 13.3672 9.24994 13.2715 9.1576C13.1702 9.07967 13.0445 9.0411 12.9174 9.04871C12.8176 9.04138 12.7184 9.07015 12.6377 9.12977C12.608 9.15372 12.5841 9.18399 12.5677 9.21864C12.5514 9.25329 12.5432 9.29112 12.5435 9.32948C12.5443 9.35942 12.5517 9.38876 12.5653 9.41541C12.5789 9.44207 12.5982 9.46566 12.6219 9.48377C12.7302 9.55331 12.8524 9.5976 12.9798 9.61366C13.3246 9.67801 13.6605 9.78338 13.9806 9.92762C14.1611 10.0148 14.3134 10.1518 14.4199 10.3226C14.512 10.4818 14.5594 10.6633 14.5569 10.8475C14.5581 11.0714 14.4943 11.2906 14.3733 11.4784C14.249 11.6722 14.0706 11.8245 13.8606 11.9164C13.5975 12.0235 13.3151 12.0746 13.0314 12.0658C12.5934 12.112 12.1549 11.984 11.8096 11.7084ZM28.0887 11.9984L26.7995 10.0458V11.9984H25.7978V8.44373H26.7896L28.0878 10.4105V8.44373H29.0914V11.9984H28.0887ZM24.2456 11.9984L23.6763 10.9115C23.6305 10.8084 23.5648 10.7157 23.483 10.6386C23.4067 10.5835 23.3149 10.5545 23.2211 10.5556H23.1269V11.9984H22.0567V8.44373H23.831C24.0855 8.43366 24.3401 8.46292 24.5858 8.53065C24.7583 8.58748 24.9068 8.70102 25.0073 8.8534C25.1176 9.02448 25.1733 9.22565 25.167 9.42957C25.1715 9.60774 25.1293 9.78419 25.045 9.9408C24.9632 10.0832 24.8473 10.2022 24.7078 10.2875C24.5913 10.3542 24.4651 10.4022 24.3338 10.4296C24.4322 10.4589 24.5258 10.5026 24.6116 10.5595C24.6753 10.6151 24.7323 10.6782 24.7812 10.7474C24.8378 10.8159 24.8879 10.8898 24.9309 10.9677L25.4467 11.9984H24.2456ZM23.1279 9.8827H23.5772C23.6723 9.87578 23.7666 9.85937 23.8588 9.83436C23.9279 9.82004 23.9894 9.78067 24.0314 9.72352C24.0761 9.66402 24.0999 9.59114 24.0988 9.51649C24.1019 9.46713 24.094 9.41782 24.0756 9.37196C24.0572 9.3261 24.0289 9.28472 23.9927 9.25135C23.874 9.17781 23.7345 9.146 23.5959 9.16053H23.1279V9.8827ZM18.5657 11.9984V8.44373H21.42V9.20252H19.6348V9.76746H21.2931V10.4935H19.6348V11.1937H21.4746V11.9984H18.5657ZM15.9354 11.9984V9.32166H14.8494V8.44373H18.0876V9.32166H16.9966V11.9984H15.9354ZM8.13496 11.9984V8.44373H10.9894V9.20252H9.20411V9.76746H10.8614V10.4935H9.19624V11.1937H11.034V11.9984H8.13496ZM5.98576 11.9984L5.38175 9.75965L4.7798 11.9984H3.73547L2.96875 8.44373H3.98039L4.34444 10.4335L4.87799 8.44373H5.88564L6.42015 10.4315L6.7842 8.44373H7.79088L7.03118 11.9984H5.98576Z" fill="#ECD345"/>
<path d="M33.8404 16.7549V8.375H35.0305V16.7549H33.8404ZM30.875 16.7549V8.375H32.0651V16.7549H30.875Z" fill="#ECD345"/>
</svg>
